<svg xmlns="http://www.w3.org/2000/svg" xmlns:xlink="http://www.w3.org/1999/xlink" version="1.1" x="0px" y="0px" viewBox="0 0 100 125" enable-background="new 0 0 100 100" xml:space="preserve"><g><path d="M79.5,11.8c-1.3,0-2.4,1.1-2.4,2.4s1.1,2.4,2.4,2.4c5.9,0,10.7,4.8,10.7,10.8c0,1.3,1.1,2.4,2.4,2.4s2.4-1.1,2.4-2.4   C95,18.8,88.1,11.8,79.5,11.8z"/><path d="M22.9,14.2c0-1.3-1.1-2.4-2.4-2.4C11.9,11.8,5,18.8,5,27.3c0,1.3,1.1,2.4,2.4,2.4s2.4-1.1,2.4-2.4   c0-5.9,4.8-10.8,10.7-10.8C21.8,16.6,22.9,15.5,22.9,14.2z"/><path d="M82,26.7c-0.2-0.7-0.7-1.3-1.4-1.6c-0.7-0.3-1.4-0.3-2.1,0.1c-8.7,4.8-18.5,7.4-28.5,7.4s-19.8-2.5-28.5-7.4   c-0.6-0.4-1.4-0.4-2.1-0.1c-0.7,0.3-1.2,0.9-1.4,1.6c-0.7,2.7-1,5.5-1,8.2c0,6.5,1.9,12.7,5.4,18.1c-3.4,4.2-5.4,9.5-5.4,15.3   c0,11,8.9,19.9,19.9,19.9s19.9-8.9,19.9-19.9v-1.1c7.4-1.5,13.9-5.6,18.5-11.1c0,0,0,0,0,0c0.2-0.2,0.4-0.4,0.6-0.7   c4.5-5.7,7.1-12.8,7.1-20.4C83.1,32.2,82.7,29.4,82,26.7z M56.8,62.4V59c0-1.3-1.1-2.4-2.4-2.4s-2.4,1.1-2.4,2.4v9.3   c0,8.3-6.8,15.1-15.1,15.1s-15.1-6.8-15.1-15.1c0-10.7,8.7-19.5,19.5-19.5c0.4,0,0.9,0,1.3,0.1c-5.9,4.4-9.8,11.5-9.8,19.4   c0,1.3,1.1,2.4,2.4,2.4c1.3,0,2.4-1.1,2.4-2.4c0-10.7,8.7-19.5,19.5-19.5c5.1,0,9.9,2,13.5,5.5C67,58.2,62.2,61.1,56.8,62.4z    M73.6,50.6c-4.5-4.2-10.3-6.5-16.5-6.5c-2.8,0-5.4,0.5-7.9,1.3c-2.5-0.9-5.2-1.3-7.8-1.3c-5.8,0-11.2,2.1-15.4,5.5   c-2.7-4.4-4.1-9.4-4.1-14.6c0-1.4,0.1-2.7,0.3-4.1c8.7,4.2,18.3,6.5,27.9,6.5c9.7,0,19.3-2.2,27.9-6.5c0.2,1.4,0.3,2.7,0.3,4.1   C78.3,40.7,76.6,46.1,73.6,50.6z"/></g><text x="0" y="115" fill="#000000" font-size="5px" font-weight="bold" font-family="'Helvetica Neue', Helvetica, Arial-Unicode, Arial, Sans-serif">Created by Deivid Sáenz</text><text x="0" y="120" fill="#000000" font-size="5px" font-weight="bold" font-family="'Helvetica Neue', Helvetica, Arial-Unicode, Arial, Sans-serif">from the Noun Project</text></svg>